<svg width="64" height="64" viewBox="0 0 64 64" fill="none" xmlns="http://www.w3.org/2000/svg">
  <defs>
    <linearGradient id="bg" x1="7" y1="5" x2="57" y2="59" gradientUnits="userSpaceOnUse">
      <stop stop-color="#15191C"/>
      <stop offset="1" stop-color="#050706"/>
    </linearGradient>
    <linearGradient id="green" x1="35" y1="14" x2="56" y2="51" gradientUnits="userSpaceOnUse">
      <stop stop-color="#20F0B6"/>
      <stop offset="0.55" stop-color="#12DFA7"/>
      <stop offset="1" stop-color="#08B989"/>
    </linearGradient>
    <filter id="shadow" x="-30%" y="-30%" width="160%" height="160%">
      <feDropShadow dx="0" dy="2" stdDeviation="1.5" flood-color="#000000" flood-opacity="0.75"/>
    </filter>
    <filter id="rough" x="-10%" y="-10%" width="120%" height="120%">
      <feTurbulence type="fractalNoise" baseFrequency="0.8" numOctaves="2" seed="7" result="noise"/>
      <feColorMatrix in="noise" type="saturate" values="0" result="mono"/>
      <feComponentTransfer in="mono" result="grain"><feFuncA type="table" tableValues="0 0.12"/></feComponentTransfer>
      <feBlend in="SourceGraphic" in2="grain" mode="multiply"/>
    </filter>
  </defs>
  <rect x="2" y="2" width="60" height="60" rx="14" fill="url(#bg)" stroke="#16DFA8" stroke-opacity="0.62" stroke-width="2"/>
  <path d="M11.5 46V18L25.5 31.8L32.5 24.6V46H26.2V34.2L25.4 35.1L17.8 27.7V46H11.5Z" fill="#F3F4F2" filter="url(#shadow)"/>
  <path d="M32 17.5H46.4C53.3 17.5 57 21 57 26.1C57 29.4 55.5 31.8 52.5 33.3C56.1 34.6 58.2 37.3 58.2 41C58.2 46.9 54 50.5 46.6 50.5H32V44.2H46.1C49.9 44.2 51.8 42.9 51.8 40.4C51.8 37.9 49.8 36.7 46 36.7H38.2V31H46C49.1 31 50.8 29.8 50.8 27.5C50.8 25.2 49.1 23.9 45.8 23.9H32V17.5Z" fill="url(#green)" filter="url(#shadow)"/>
  <path d="M4.5 12.5L10 7.5M51 57L58 50" stroke="#16DFA8" stroke-opacity="0.28" stroke-width="1.2" stroke-linecap="round"/>
  <g opacity="0.18" filter="url(#rough)">
    <rect x="4" y="4" width="56" height="56" rx="12" fill="#FFFFFF"/>
  </g>
</svg>